<?xml version="1.0" encoding="utf-8"?>
<!-- Generator: Adobe Illustrator 27.2.0, SVG Export Plug-In . SVG Version: 6.00 Build 0)  -->
<svg version="1.1" id="Layer_1" xmlns="http://www.w3.org/2000/svg" xmlns:xlink="http://www.w3.org/1999/xlink" x="0px" y="0px"
	 viewBox="0 0 100 100" style="enable-background:new 0 0 100 100;" xml:space="preserve">
<style type="text/css">
	.st0{fill:#4373B9;}
	.st1{fill:#FFFFFF;}
</style>
<g>
	<path class="st0" d="M100,50c0-27.6-22.4-50-50-50S0,22.4,0,50c0,25,18.3,45.6,42.2,49.4V64.5H29.5V50h12.7V39
		c0-12.5,7.5-19.5,18.9-19.5c5.5,0,11.2,1,11.2,1v12.3H66c-6.2,0-8.1,3.9-8.1,7.8V50h13.9l-2.2,14.5H57.8v34.9
		C81.7,95.6,100,75,100,50z"/>
	<path class="st1" d="M69.5,64.5L71.7,50H57.8v-9.4c0-4,1.9-7.8,8.1-7.8h6.3V20.5c0,0-5.7-1-11.2-1c-11.4,0-18.9,6.9-18.9,19.5v11
		H29.5v14.5h12.7v34.9c2.5,0.4,5.2,0.6,7.8,0.6s5.3-0.2,7.8-0.6V64.5H69.5z"/>
</g>
</svg>
